<svg xmlns="http://www.w3.org/2000/svg" viewBox="0 0 149.98 149.98"><defs><style>.cls-1{fill:#60caef;opacity:0.7;}.cls-2{fill:#ffeed7;}</style></defs><title>Asset 13</title><g id="Layer_2" data-name="Layer 2"><g id="Ebene_1" data-name="Ebene 1"><rect class="cls-1" width="149.98" height="149.98" rx="22.79" ry="22.79"/><path class="cls-2" d="M128.57,47.54a39.18,39.18,0,0,1-11.28,3.09,19.74,19.74,0,0,0,8.64-10.87,39.29,39.29,0,0,1-12.48,4.78A19.65,19.65,0,0,0,79.46,58,19.32,19.32,0,0,0,80,62.45a55.69,55.69,0,0,1-40.5-20.53,19.69,19.69,0,0,0,6.07,26.24,19.57,19.57,0,0,1-8.89-2.46V66A19.65,19.65,0,0,0,52.41,85.21a19.38,19.38,0,0,1-8.88.34A19.67,19.67,0,0,0,61.89,99.2a39.42,39.42,0,0,1-24.41,8.41,40.28,40.28,0,0,1-4.68-.28,55.64,55.64,0,0,0,30.12,8.83c36.14,0,55.91-29.94,55.91-55.91,0-.84,0-1.69-.06-2.54A40.16,40.16,0,0,0,128.57,47.54Z"/></g></g></svg>